<svg width="216" height="216" viewBox="0 0 216 216" fill="none" xmlns="http://www.w3.org/2000/svg">
<mask id="mask0_13_23" style="mask-type:luminance" maskUnits="userSpaceOnUse" x="0" y="0" width="216" height="216">
<path d="M216 0H0V216H216V0Z" fill="white"/>
</mask>
<g mask="url(#mask0_13_23)">
<path d="M0.992632 94.0428C6.30072 77.3602 20.356 63.1793 38.3806 63.1793C45.4641 63.3187 52.4068 65.2887 58.513 68.9209C60.8185 69.9978 63.0122 71.2831 65.0788 72.7645C83.6609 86.0783 87.9365 111.926 74.6226 130.508C67.4548 141.252 57.3257 146.618 56.137 172.884C55.2852 191.382 70.8081 205.549 80.0012 212.27C32.8473 199.584 0.0842218 156.83 0.0704346 108.014C0.0842218 103.348 0.390589 98.6952 0.992632 94.0841" fill="url(#paint0_linear_13_23)"/>
<path d="M108.028 0.0698853H108.265C110.808 0.0698853 113.323 0.209594 115.81 0.377339C140.987 5.42102 163.425 30.8493 145.961 60.2181C144.829 62.4945 143.488 64.6606 141.964 66.6858C128.217 84.9325 102.258 88.5937 83.9963 74.831C73.4629 67.4273 68.3341 57.1711 42.1521 55.3558C26.2248 54.2375 13.2724 65.3025 5.51941 74.1616C20.1323 29.9551 61.4466 0.0838285 108.014 0.0838285" fill="url(#paint1_linear_13_23)"/>
<path d="M159.848 43.158C160.715 24.6597 145.192 10.4925 136.013 3.77234C188.28 17.7439 222.077 68.3065 214.993 121.957C207.841 144.493 184.703 162.447 157.487 147.107C155.181 146.03 152.974 144.745 150.906 143.265C132.339 129.949 128.063 104.087 141.391 85.5054C148.531 74.7758 158.66 69.4111 159.848 43.1861" fill="url(#paint2_linear_13_23)"/>
<path d="M105.765 132.912C115.14 133.065 124.263 135.944 132.017 141.183C142.566 148.573 147.693 158.843 173.875 160.673C189.789 161.79 202.755 150.725 210.496 141.868C195.895 186.086 154.581 215.959 108.014 215.972C105.388 215.972 102.788 215.833 100.218 215.637C75.0408 210.592 52.5891 185.164 70.0667 155.811C80.5327 138.22 93.8604 132.912 105.765 132.912Z" fill="url(#paint3_linear_13_23)"/>
</g>
<defs>
<linearGradient id="paint0_linear_13_23" x1="20.3423" y1="252.76" x2="97.5492" y2="240.534" gradientUnits="userSpaceOnUse">
<stop stop-color="#EEE832"/>
<stop offset="1" stop-color="#D48D2F"/>
</linearGradient>
<linearGradient id="paint1_linear_13_23" x1="5.51941" y1="112.527" x2="141.685" y2="112.527" gradientUnits="userSpaceOnUse">
<stop stop-color="#57A2D7"/>
<stop offset="1" stop-color="#EAF3F6"/>
</linearGradient>
<linearGradient id="paint2_linear_13_23" x1="138.612" y1="182.203" x2="210.537" y2="182.203" gradientUnits="userSpaceOnUse">
<stop stop-color="#57A2D7"/>
<stop offset="1" stop-color="#29357D"/>
</linearGradient>
<linearGradient id="paint3_linear_13_23" x1="74.3423" y1="247.24" x2="210.496" y2="247.24" gradientUnits="userSpaceOnUse">
<stop stop-color="#D8DA39"/>
<stop offset="1" stop-color="#9BBE49"/>
</linearGradient>
</defs>
</svg>
